# MagicaVoxel @ Ephtracy

# group
o 

# material
mtllib Tile.mtl
usemtl palette

# normals
vn -1 0 0
vn 1 0 0
vn 0 0 1
vn 0 0 -1
vn 0 -1 0
vn 0 1 0

# texcoords
vt 0.0214844 0.5
vt 0.197266 0.5
vt 0.482422 0.5
vt 0.583984 0.5

# verts
v -0.5 0 0.5
v -0.5 0 -0.5
v -0.5 0.7 0.5
v -0.5 0.7 0.2
v -0.5 0.7 -0.2
v -0.5 0.7 -0.3
v -0.5 0.8 0.5
v -0.5 0.8 0.4
v -0.5 0.8 0.2
v -0.5 0.8 0.1
v -0.5 0.8 0
v -0.5 0.8 -0.2
v -0.5 0.8 -0.3
v -0.5 0.8 -0.4
v -0.5 0.8 -0.5
v -0.5 0.9 0.5
v -0.5 0.9 0.4
v -0.5 0.9 0.3
v -0.5 0.9 0.2
v -0.5 0.9 0.1
v -0.5 0.9 0
v -0.5 0.9 -0.2
v -0.5 0.9 -0.4
v -0.5 1 0.5
v -0.5 1 0.3
v -0.5 1 0.2
v -0.5 1 -0.5
v 0.5 0 0.5
v 0.5 0 -0.5
v 0.5 0.7 0.5
v 0.5 0.7 0.4
v 0.5 0.7 0.3
v 0.5 0.7 0.2
v 0.5 0.7 0
v 0.5 0.7 -0.3
v 0.5 0.7 -0.4
v 0.5 0.7 -0.5
v 0.5 0.8 0.3
v 0.5 0.8 0.2
v 0.5 0.8 0
v 0.5 0.8 -0.2
v 0.5 0.8 -0.3
v 0.5 0.8 -0.4
v 0.5 0.8 -0.5
v 0.5 0.9 0.4
v 0.5 0.9 0.2
v 0.5 0.9 -0.2
v 0.5 0.9 -0.3
v 0.5 0.9 -0.4
v 0.5 0.9 -0.5
v 0.5 1 0.5
v 0.5 1 -0.2
v 0.5 1 -0.3
v 0.5 1 -0.5
v -0.5 0 0.5
v -0.5 0.7 0.5
v -0.5 0.8 0.5
v -0.5 0.9 0.5
v -0.5 1 0.5
v -0.4 0.7 0.5
v -0.4 0.8 0.5
v -0.4 0.9 0.5
v -0.3 0.8 0.5
v -0.3 0.9 0.5
v -0.2 0.8 0.5
v -0.2 0.9 0.5
v 0 0.7 0.5
v 0 0.8 0.5
v 0.1 0.7 0.5
v 0.1 0.9 0.5
v 0.2 0.9 0.5
v 0.2 1 0.5
v 0.3 0.7 0.5
v 0.3 0.9 0.5
v 0.3 1 0.5
v 0.5 0 0.5
v 0.5 0.7 0.5
v 0.5 1 0.5
v -0.5 0 -0.5
v -0.5 0.8 -0.5
v -0.5 1 -0.5
v -0.4 0.8 -0.5
v -0.4 0.9 -0.5
v -0.3 0.8 -0.5
v -0.3 0.9 -0.5
v -0.1 0.9 -0.5
v -0.1 1 -0.5
v 0 0.7 -0.5
v 0 0.8 -0.5
v 0 0.9 -0.5
v 0 1 -0.5
v 0.1 0.7 -0.5
v 0.1 0.8 -0.5
v 0.2 0.8 -0.5
v 0.2 0.9 -0.5
v 0.4 0.7 -0.5
v 0.4 0.8 -0.5
v 0.4 0.9 -0.5
v 0.5 0 -0.5
v 0.5 0.7 -0.5
v 0.5 0.8 -0.5
v 0.5 0.9 -0.5
v 0.5 1 -0.5
v -0.5 0 0.5
v 0.5 0 0.5
v -0.5 0 -0.5
v 0.5 0 -0.5
v -0.5 1 0.5
v 0.2 1 0.5
v 0.3 1 0.5
v 0.5 1 0.5
v -0.2 1 0.4
v -0.1 1 0.4
v 0.2 1 0.4
v 0.3 1 0.4
v -0.5 1 0.3
v -0.4 1 0.3
v -0.3 1 0.3
v -0.2 1 0.3
v -0.1 1 0.3
v 0 1 0.3
v -0.5 1 0.2
v -0.4 1 0.2
v -0.3 1 0.2
v -0.2 1 0.2
v -0.1 1 0.2
v 0 1 0.2
v -0.2 1 0.1
v -0.1 1 0.1
v 0.1 1 0.1
v 0.2 1 0.1
v 0.1 1 0
v 0.2 1 0
v 0.3 1 -0.1
v 0.4 1 -0.1
v -0.3 1 -0.2
v -0.2 1 -0.2
v 0.2 1 -0.2
v 0.3 1 -0.2
v 0.4 1 -0.2
v 0.5 1 -0.2
v -0.3 1 -0.3
v -0.2 1 -0.3
v 0.2 1 -0.3
v 0.3 1 -0.3
v 0.4 1 -0.3
v 0.5 1 -0.3
v -0.1 1 -0.4
v 0 1 -0.4
v 0.3 1 -0.4
v 0.4 1 -0.4
v -0.5 1 -0.5
v -0.1 1 -0.5
v 0 1 -0.5
v 0.5 1 -0.5

# faces
f 3/2/1 2/2/1 1/2/1
f 4/2/1 2/2/1 3/2/1
f 5/2/1 2/2/1 4/2/1
f 6/2/1 2/2/1 5/2/1
f 7/4/1 4/4/1 3/4/1
f 8/4/1 4/4/1 7/4/1
f 9/2/1 5/2/1 4/2/1
f 9/4/1 4/4/1 8/4/1
f 10/2/1 5/2/1 9/2/1
f 11/2/1 5/2/1 10/2/1
f 12/4/1 6/4/1 5/4/1
f 12/2/1 5/2/1 11/2/1
f 13/2/1 2/2/1 6/2/1
f 13/4/1 6/4/1 12/4/1
f 14/2/1 2/2/1 13/2/1
f 15/2/1 2/2/1 14/2/1
f 16/2/1 8/2/1 7/2/1
f 17/4/1 9/4/1 8/4/1
f 17/2/1 8/2/1 16/2/1
f 17/4/1 10/4/1 9/4/1
f 18/4/1 10/4/1 17/4/1
f 19/4/1 10/4/1 18/4/1
f 20/2/1 11/2/1 10/2/1
f 20/4/1 10/4/1 19/4/1
f 21/4/1 12/4/1 11/4/1
f 21/2/1 11/2/1 20/2/1
f 22/2/1 13/2/1 12/2/1
f 22/4/1 12/4/1 21/4/1
f 22/2/1 14/2/1 13/2/1
f 23/4/1 15/4/1 14/4/1
f 23/2/1 14/2/1 22/2/1
f 24/4/1 18/4/1 17/4/1
f 24/4/1 17/4/1 16/4/1
f 25/3/1 19/3/1 18/3/1
f 25/4/1 18/4/1 24/4/1
f 26/4/1 20/4/1 19/4/1
f 26/3/1 19/3/1 25/3/1
f 26/4/1 22/4/1 21/4/1
f 26/4/1 23/4/1 22/4/1
f 26/4/1 21/4/1 20/4/1
f 27/4/1 15/4/1 23/4/1
f 27/4/1 23/4/1 26/4/1
f 28/2/2 29/2/2 30/2/2
f 30/2/2 29/2/2 31/2/2
f 31/2/2 29/2/2 32/2/2
f 32/2/2 29/2/2 33/2/2
f 33/2/2 29/2/2 34/2/2
f 34/2/2 29/2/2 35/2/2
f 35/2/2 29/2/2 36/2/2
f 36/2/2 29/2/2 37/2/2
f 31/2/2 32/2/2 38/2/2
f 32/4/2 33/4/2 38/4/2
f 33/2/2 34/2/2 39/2/2
f 38/4/2 33/4/2 39/4/2
f 34/4/2 35/4/2 40/4/2
f 39/2/2 34/2/2 40/2/2
f 40/4/2 35/4/2 41/4/2
f 35/2/2 36/2/2 42/2/2
f 41/4/2 35/4/2 42/4/2
f 36/4/2 37/4/2 43/4/2
f 42/2/2 36/2/2 43/2/2
f 43/4/2 37/4/2 44/4/2
f 30/4/2 31/4/2 45/4/2
f 31/2/2 38/2/2 45/2/2
f 38/2/2 39/2/2 45/2/2
f 40/4/2 41/4/2 46/4/2
f 45/2/2 39/2/2 46/2/2
f 39/4/2 40/4/2 46/4/2
f 41/2/2 42/2/2 47/2/2
f 46/4/2 41/4/2 47/4/2
f 42/4/2 43/4/2 48/4/2
f 47/2/2 42/2/2 48/2/2
f 43/2/2 44/2/2 49/2/2
f 48/4/2 43/4/2 49/4/2
f 49/2/2 44/2/2 50/2/2
f 45/4/2 46/4/2 51/4/2
f 46/4/2 47/4/2 51/4/2
f 30/4/2 45/4/2 51/4/2
f 47/1/2 48/1/2 52/1/2
f 51/4/2 47/4/2 52/4/2
f 49/4/2 50/4/2 53/4/2
f 52/1/2 48/1/2 53/1/2
f 48/4/2 49/4/2 53/4/2
f 53/4/2 50/4/2 54/4/2
f 60/2/3 56/2/3 55/2/3
f 60/4/3 57/4/3 56/4/3
f 61/2/3 58/2/3 57/2/3
f 61/4/3 57/4/3 60/4/3
f 62/4/3 59/4/3 58/4/3
f 62/2/3 58/2/3 61/2/3
f 63/2/3 61/2/3 60/2/3
f 63/4/3 62/4/3 61/4/3
f 64/4/3 59/4/3 62/4/3
f 64/4/3 62/4/3 63/4/3
f 65/2/3 63/2/3 60/2/3
f 65/2/3 64/2/3 63/2/3
f 66/4/3 59/4/3 64/4/3
f 66/2/3 64/2/3 65/2/3
f 67/2/3 65/2/3 60/2/3
f 67/2/3 60/2/3 55/2/3
f 68/4/3 66/4/3 65/4/3
f 68/2/3 65/2/3 67/2/3
f 69/2/3 67/2/3 55/2/3
f 69/4/3 68/4/3 67/4/3
f 70/4/3 59/4/3 66/4/3
f 70/4/3 68/4/3 69/4/3
f 70/4/3 66/4/3 68/4/3
f 71/2/3 70/2/3 69/2/3
f 71/4/3 59/4/3 70/4/3
f 72/4/3 59/4/3 71/4/3
f 73/2/3 69/2/3 55/2/3
f 73/2/3 71/2/3 69/2/3
f 74/1/3 72/1/3 71/1/3
f 74/2/3 71/2/3 73/2/3
f 75/1/3 72/1/3 74/1/3
f 76/2/3 73/2/3 55/2/3
f 77/4/3 74/4/3 73/4/3
f 77/2/3 73/2/3 76/2/3
f 77/4/3 75/4/3 74/4/3
f 78/4/3 75/4/3 77/4/3
f 79/2/4 80/2/4 82/2/4
f 80/4/4 81/4/4 82/4/4
f 82/4/4 81/4/4 83/4/4
f 79/2/4 82/2/4 84/2/4
f 82/2/4 83/2/4 84/2/4
f 83/4/4 81/4/4 85/4/4
f 84/2/4 83/2/4 85/2/4
f 84/4/4 85/4/4 86/4/4
f 85/4/4 81/4/4 86/4/4
f 86/4/4 81/4/4 87/4/4
f 79/2/4 84/2/4 88/2/4
f 84/4/4 86/4/4 89/4/4
f 88/2/4 84/2/4 89/2/4
f 86/3/4 87/3/4 90/3/4
f 89/4/4 86/4/4 90/4/4
f 90/3/4 87/3/4 91/3/4
f 79/2/4 88/2/4 92/2/4
f 88/4/4 89/4/4 92/4/4
f 89/2/4 90/2/4 93/2/4
f 92/4/4 89/4/4 93/4/4
f 92/2/4 93/2/4 94/2/4
f 93/2/4 90/2/4 94/2/4
f 90/4/4 91/4/4 95/4/4
f 94/2/4 90/2/4 95/2/4
f 92/2/4 94/2/4 96/2/4
f 79/2/4 92/2/4 96/2/4
f 94/4/4 95/4/4 97/4/4
f 96/2/4 94/2/4 97/2/4
f 95/4/4 91/4/4 98/4/4
f 97/4/4 95/4/4 98/4/4
f 79/2/4 96/2/4 99/2/4
f 96/4/4 97/4/4 100/4/4
f 99/2/4 96/2/4 100/2/4
f 97/2/4 98/2/4 101/2/4
f 100/4/4 97/4/4 101/4/4
f 98/4/4 91/4/4 102/4/4
f 101/2/4 98/2/4 102/2/4
f 102/4/4 91/4/4 103/4/4
f 106/2/5 105/2/5 104/2/5
f 107/2/5 105/2/5 106/2/5
f 108/4/6 109/4/6 112/4/6
f 112/4/6 109/4/6 113/4/6
f 109/1/6 110/1/6 114/1/6
f 113/4/6 109/4/6 114/4/6
f 110/4/6 111/4/6 115/4/6
f 114/1/6 110/1/6 115/1/6
f 108/4/6 112/4/6 116/4/6
f 116/4/6 112/4/6 117/4/6
f 117/4/6 112/4/6 118/4/6
f 112/1/6 113/1/6 119/1/6
f 118/4/6 112/4/6 119/4/6
f 113/4/6 114/4/6 120/4/6
f 119/1/6 113/1/6 120/1/6
f 114/4/6 115/4/6 120/4/6
f 120/4/6 115/4/6 121/4/6
f 116/3/6 117/3/6 122/3/6
f 117/4/6 118/4/6 123/4/6
f 122/3/6 117/3/6 123/3/6
f 118/1/6 119/1/6 124/1/6
f 123/4/6 118/4/6 124/4/6
f 119/3/6 120/3/6 125/3/6
f 124/1/6 119/1/6 125/1/6
f 120/1/6 121/1/6 126/1/6
f 125/3/6 120/3/6 126/3/6
f 121/4/6 115/4/6 127/4/6
f 126/1/6 121/1/6 127/1/6
f 122/4/6 123/4/6 128/4/6
f 125/1/6 126/1/6 128/1/6
f 123/4/6 124/4/6 128/4/6
f 124/4/6 125/4/6 128/4/6
f 126/4/6 127/4/6 129/4/6
f 128/1/6 126/1/6 129/1/6
f 127/4/6 115/4/6 130/4/6
f 129/4/6 127/4/6 130/4/6
f 130/4/6 115/4/6 131/4/6
f 128/4/6 129/4/6 132/4/6
f 129/4/6 130/4/6 132/4/6
f 130/1/6 131/1/6 132/1/6
f 131/4/6 115/4/6 133/4/6
f 132/1/6 131/1/6 133/1/6
f 115/4/6 111/4/6 134/4/6
f 133/4/6 115/4/6 134/4/6
f 132/4/6 133/4/6 134/4/6
f 134/4/6 111/4/6 135/4/6
f 128/4/6 132/4/6 136/4/6
f 122/4/6 128/4/6 136/4/6
f 132/4/6 134/4/6 136/4/6
f 136/4/6 134/4/6 137/4/6
f 137/4/6 134/4/6 138/4/6
f 134/1/6 135/1/6 139/1/6
f 138/4/6 134/4/6 139/4/6
f 135/4/6 111/4/6 140/4/6
f 139/1/6 135/1/6 140/1/6
f 140/4/6 111/4/6 141/4/6
f 122/4/6 136/4/6 142/4/6
f 136/1/6 137/1/6 142/1/6
f 137/4/6 138/4/6 143/4/6
f 142/1/6 137/1/6 143/1/6
f 138/1/6 139/1/6 144/1/6
f 143/4/6 138/4/6 144/4/6
f 139/3/6 140/3/6 145/3/6
f 144/1/6 139/1/6 145/1/6
f 140/1/6 141/1/6 146/1/6
f 145/3/6 140/3/6 146/3/6
f 146/1/6 141/1/6 147/1/6
f 142/4/6 143/4/6 148/4/6
f 144/4/6 145/4/6 148/4/6
f 143/4/6 144/4/6 148/4/6
f 148/4/6 145/4/6 149/4/6
f 145/1/6 146/1/6 150/1/6
f 149/4/6 145/4/6 150/4/6
f 146/4/6 147/4/6 151/4/6
f 150/1/6 146/1/6 151/1/6
f 122/4/6 142/4/6 152/4/6
f 142/4/6 148/4/6 152/4/6
f 148/3/6 149/3/6 153/3/6
f 152/4/6 148/4/6 153/4/6
f 149/4/6 150/4/6 154/4/6
f 153/3/6 149/3/6 154/3/6
f 150/4/6 151/4/6 154/4/6
f 151/4/6 147/4/6 155/4/6
f 154/4/6 151/4/6 155/4/6
